<?xml version="1.0" encoding="iso-8859-1"?>
<!-- Generator: Adobe Illustrator 18.0.0, SVG Export Plug-In . SVG Version: 6.00 Build 0)  -->
<!DOCTYPE svg PUBLIC "-//W3C//DTD SVG 1.1//EN" "http://www.w3.org/Graphics/SVG/1.1/DTD/svg11.dtd">
<svg version="1.1" id="Capa_1" xmlns="http://www.w3.org/2000/svg" xmlns:xlink="http://www.w3.org/1999/xlink" x="0px" y="0px"
	 viewBox="0 0 133.865 133.865" style="enable-background:new 0 0 133.865 133.865;" xml:space="preserve">
<g>
	<path style="fill:#FF8898;" d="M66.939,10.593c20.481,0,37.97,13.05,44.595,31.271h4.85C109.568,21.067,89.985,6,66.939,6
		c-23.047,0-42.63,15.067-49.446,35.865h4.85C28.968,23.643,46.457,10.593,66.939,10.593z"/>
	<path style="fill:#FFEB97;" d="M120.479,47.865H13.385c-3.834,0-6.953,3.119-6.953,6.953c0,3.928,3.119,7.047,6.953,7.047h107.094
		c3.834,0,6.953-3.119,6.953-6.953C127.432,50.984,124.313,47.865,120.479,47.865z"/>
	<path style="fill:#586065;" d="M122.718,42.072C115.767,17.812,93.402,0,66.939,0c-26.462,0-48.829,17.812-55.78,42.07
		C5.076,43.131,0.432,48.446,0.432,54.912c0,5.848,3.897,10.797,9.229,12.402c0.532,3.29,1.347,6.484,2.408,9.566l7.508,56.985
		h95.31l7.94-60.262c0.573-2.056,1.043-4.153,1.388-6.293c5.326-1.611,9.216-6.572,9.216-12.492
		C133.432,48.44,128.796,43.138,122.718,42.072z M66.939,6c23.046,0,42.628,15.067,49.445,35.865h-4.85
		c-6.625-18.221-24.113-31.271-44.595-31.271c-20.482,0-37.971,13.05-44.596,31.271h-4.85C24.309,21.067,43.892,6,66.939,6z
		 M105.089,41.865H28.788c6.311-14.839,21.035-25.271,38.151-25.271C84.054,16.593,98.778,27.025,105.089,41.865z M45.432,127.865
		H24.84l-2.24-17h22.833V127.865z M45.432,104.865H21.809l-1.977-15h25.6V104.865z M45.432,83.865h-26.39l-2.108-16h28.498V83.865z
		 M83.432,127.865h-32v-17h32V127.865z M83.432,104.865h-32v-15h32V104.865z M83.432,83.865h-32v-16h32V83.865z M109.626,127.865
		H89.432v-17h22.434L109.626,127.865z M112.656,104.865H89.432v-15h25.2L112.656,104.865z M115.424,83.865H89.432v-16h28.099
		L115.424,83.865z M120.479,61.865H13.385c-3.834,0-6.953-3.119-6.953-7.047c0-3.834,3.119-6.953,6.953-6.953h107.094
		c3.834,0,6.953,3.119,6.953,7.047C127.432,58.746,124.313,61.865,120.479,61.865z"/>
</g>
<g>
</g>
<g>
</g>
<g>
</g>
<g>
</g>
<g>
</g>
<g>
</g>
<g>
</g>
<g>
</g>
<g>
</g>
<g>
</g>
<g>
</g>
<g>
</g>
<g>
</g>
<g>
</g>
<g>
</g>
</svg>
