<?xml version="1.0" encoding="utf-8"?>
<!-- Generator: Adobe Illustrator 24.0.1, SVG Export Plug-In . SVG Version: 6.00 Build 0)  -->
<svg version="1.1" id="Layer_1" xmlns="http://www.w3.org/2000/svg" xmlns:xlink="http://www.w3.org/1999/xlink" x="0px" y="0px"
	 viewBox="0 0 24 24" style="enable-background:new 0 0 24 24;" xml:space="preserve">
<style type="text/css">
	.st0{fill:#736157;}
	.st1{fill-rule:evenodd;clip-rule:evenodd;fill:#736157;}
</style>
<path class="st0" d="M10,5l0.1,9.2h1.6L11.8,5H10z"/>
<path class="st0" d="M10,15.9v1.8h1.8v-1.8H10z"/>
<path class="st1" d="M22,11c0,6.1-4.9,11-11,11C4.9,22,0,17.1,0,11C0,4.9,4.9,0,11,0C17.1,0,22,4.9,22,11z M21,11
	c0,5.5-4.5,10-10,10C5.5,21,1,16.5,1,11C1,5.5,5.5,1,11,1C16.5,1,21,5.5,21,11z"/>
</svg>
